<svg xmlns="http://www.w3.org/2000/svg" viewBox="-49 0 512 512" width="40">
  <path fill="#6a80ff" d="M159 393h96v69h-96zm0 0"/>
  <path fill="#a7c5ff" d="M159 462c0 22 18 40 40 40h17c21 0 39-18 39-40zm0 0"/>
  <path fill="#feda9b" d="M339 207a132 132 0 10-219 100c25 21 39 51 39 84v2h96v-1c0-33 14-64 38-85 28-24 46-60 46-100zm0 0"/>
  <path fill="#fff" d="M207 329c-11 0-20 9-20 20v44h40v-44c0-11-9-20-20-20zm0 0"/>
  <path d="M308 107a141 141 0 00-200-1 141 141 0 006 208c22 20 35 48 35 77v71c0 28 22 50 50 50h17c27 0 49-22 49-50v-70c0-30 13-58 35-77a142 142 0 008-208zM207 279h-7a7 7 0 010-13c4 0 7 3 7 7zm0 60c6 0 10 4 10 10v34h-20v-34c0-6 5-10 10-10zm38 64v14h-76v-14zm-76 34h76v15h-76zm46 55h-16c-13 0-24-8-28-20h73c-4 12-16 20-29 20zm72-192c-24 20-39 50-42 83h-8v-34c0-9-4-17-10-23v-33c8-6 13-15 13-26v-16c0-21-17-38-38-38h-18a10 10 0 100 20h18c10 0 18 8 18 18v4a27 27 0 10-20 44h7v20c-16 0-30 13-30 30v34h-8c-2-32-17-62-42-84a122 122 0 11160 1zm0 0"/>
  <path d="M209 114a10 10 0 000 20c6 0 10-5 10-10 0-6-4-10-10-10zm0 0M253 126a10 10 0 10-10 17c24 13 38 38 38 64a10 10 0 1020 0c0-34-18-65-48-81zm0 0M207 47c6 0 10-4 10-10V10a10 10 0 10-20 0v27c0 6 5 10 10 10zm0 0M404 197h-27a10 10 0 100 20h27a10 10 0 100-20zm0 0M37 197H10a10 10 0 100 20h27a10 10 0 100-20zm0 0M335 320a10 10 0 00-15 15l20 19a10 10 0 1014-14zm0 0M80 94c2 2 4 3 7 3s5-1 7-3c4-4 4-10 0-14L75 61a10 10 0 00-14 14zm0 0M340 61l-20 19a10 10 0 0015 14l19-19a10 10 0 10-14-14zm0 0M80 320l-19 20a10 10 0 0014 14l19-19a10 10 0 10-14-15zm0 0"/>
</svg>