<svg xmlns="http://www.w3.org/2000/svg" viewBox="0 0 512 512">
  <path fill="#76c2af" d="M256 0C115 0 0 115 0 256s115 256 256 256 256-115 256-256S397 0 256 0z"/>
  <path fill="#76c2af" d="M512 256c0 141-115 256-256 256V0c141 0 256 115 256 256z"/>
  <g fill="#fff">
    <path d="M436 256a180 180 0 11-324-108 30 30 0 1148 36 120 120 0 10192 0 30 30 0 0124-48c10 0 18 5 24 12 23 32 36 69 36 108z"/>
    <path d="M286 106v150c0 17-13 30-30 30s-30-13-30-30V106c0-16 14-30 30-30s30 14 30 30z"/>
  </g>
  <g fill="#fff">
    <path d="M256 286V76c17 0 30 14 30 30v150c0 17-13 30-30 30zM436 256c0 99-81 180-180 180v-60a120 120 0 0096-192 30 30 0 0124-48c10 0 18 5 24 12 23 32 36 69 36 108z"/>
  </g>
</svg>